<svg version="1.2" xmlns="http://www.w3.org/2000/svg" viewBox="0 0 500 500" width="500" height="500">
	<title>1719719_187738-OXCQ33-667</title>
	<style>
		.s0 { fill: #a0a0a0 } 
	</style>
	<g id="BACKGROUND">
	</g>
	<g id="OBJECTS">
		<g>
			<path class="s0" d="m338.5 0.8c-0.1 0-0.3 0-0.4 0-5.6-0.5-11.2-0.8-17-0.8-8.8 0-17.6 0.2-26.4 0.6-12.2 0.7-24.3 1.8-36.2 3.8-41.8 8.6-71.6 27.5-93.9 57.3-37.5 50.1-46.7 112.9-26 168.1 6.2 16.8 15.2 34.5 24.9 51.1 14.1 24.2 26.6 42.7 38.7 58.1 3.8 4.9 8 9.7 12 14.6 18.7 22.5 38.1 45.7 41.1 76 1 10-0.1 19.9-3.2 27.8-3.5 9.2-10 16.8-15.8 23.1-4.8 5.4-15.5 12.8-30.3 19 5.7 0.1 11 0.2 13.1 0.2 34.4-1 85.6-10.9 119-77.7 6.5-16.8 11.2-40.1 4.4-69.8-4.3-18.6-12.2-36.3-22-52.6-13.7-22.8-47.3-56.2-24.2-99.5 9-16.9 31.9-23 31.9-23-4.4 12.9-4.4 25.2-2.6 36 1.4 7.6 3.7 14.4 6 20.1 1.1 2.5 2.2 4.9 3.2 6.9 7.9 14.4 19.8 26.2 34.1 33.9 12.1 6.6 25.8 10.3 40.5 10.3 5.9 0 11.7-0.6 17.3-1.8 4.9-1 9.6-2.4 14.1-4.3 7.5-2.9 14.4-6.9 20.7-11.8 12.2-9.9 22.4-23.9 29.1-42.1 1.3-3.3 2.4-6.9 3.3-10.5 2.6-11.9 4-24.3 4-37 0-91.9-70-167.3-159.4-176z"/>
			<path class="s0" d="m64.6 207.3c-0.9-10.8 0.9-23.4 7.1-34.4-6.5 4.6-24.5 19-26.2 43.1 7.2-3.9 14-6.8 19.1-8.7z"/>
			<path class="s0" d="m154.9 286.2c-10.2-17.3-18.7-35.1-25.3-52.7-7.5-20.1-11.3-41.3-11.6-62.4-0.5-8.1-0.2-15.6 1.1-22.5q0.1-0.8 0.2-1.7c-2.8 1.4-39.4 16.8-43.3 46.3-1.1 7.5-1.6 11.1 0.6 20.7-2.7 1.2-18.5 6.7-32.6 15.2-16.8 10.1-33.5 24-39.4 42.3-6.4 19.7 7.3 41.4 26.5 46.4 8.1 2.1 16.7 1.3 24.8 0.1 5.7-0.9 11.3-2.3 16.9-3.7 4-1.1 17.2-2.8 19.6-5.9-6.6 8.5-27.8 40.3-8.7 79.7q0.2 0.3 0.3 0.7c8.6-52 34.3-83 76.8-92.5-2-3.2-3.9-6.5-5.9-10zm-89.1-18.3c-4.7 0-8.4-3.7-8.4-8.3 0-4.6 3.7-8.3 8.4-8.3 4.6 0 8.3 3.7 8.3 8.3 0 4.6-3.7 8.3-8.3 8.3z"/>
			<path class="s0" d="m228.6 473.5c5.3-6 10.8-12.4 13.7-19.9 2.5-6.4 3.5-14.6 2.6-23-2.6-27-20.9-49-38.6-70.3-4.2-4.9-8.3-9.9-12.2-14.8-8.9-11.4-17.8-24.3-27.4-39.7-90 17.1-75 134.5-74.2 156.3-44-1.6-54.3 37.9-54.3 37.9 0 0 87.1-1.4 136.8-2 28.3-5.5 47.9-18.3 53.6-24.5z"/>
		</g>
	</g>
</svg>